<?xml version="1.0" encoding="UTF-8"?>
<!DOCTYPE svg PUBLIC "-//W3C//DTD SVG 1.1//EN" "http://www.w3.org/Graphics/SVG/1.1/DTD/svg11.dtd">
<svg version="1.1" xmlns="http://www.w3.org/2000/svg" xmlns:xlink="http://www.w3.org/1999/xlink" x="0" y="0" width="653.805" height="489.209" viewBox="0, 0, 653.805, 489.209">
  <g id="Layer_1" transform="translate(-57.097, -374.791)">
    <g>
      <g>
        <path d="M429.02,374.791 C414.546,374.791 400.353,375.915 386.52,378.04 C427.996,384.406 465.938,396.28 498.392,418.682 C563.965,422.001 634.728,451.868 634.728,527.462 C634.728,558.809 624.713,596.58 608.546,622.395 C608.165,623.011 607.751,623.599 607.365,624.209 C607.376,625.208 607.437,626.194 607.437,627.198 C607.437,748.721 510.428,841.73 386.52,860.753 C400.353,862.879 414.546,864 429.02,864 C573.144,864 710.903,754.687 710.903,619.598 C710.903,484.504 573.144,374.791 429.02,374.791" fill="#B9B9B7"/>
        <path d="M416.058,483.674 C405.272,433.704 349.361,426.968 302.01,426.968 L265.912,426.968 L85.497,426.968 C75.677,426.968 66.556,432.048 61.385,440.396 C49.697,459.287 63.282,483.674 85.497,483.674 L265.065,483.674 C292.312,483.674 322.795,483.674 320.948,521.476 C318.177,580.948 235.043,611.837 194.401,621.06 L214.783,564.136 C223.752,539.086 205.184,512.716 178.58,512.716 C162.311,512.716 147.804,522.953 142.349,538.277 L87.628,692.019 C78.661,717.213 97.342,743.69 124.085,743.69 C140.483,743.69 155.103,733.352 160.566,717.895 L179.159,665.316 C207.169,659.794 249.169,649.381 290.173,632.818 C331.922,615.95 372.633,592.697 396.487,561.712 C409.854,544.35 417.935,524.565 417.935,502.113 C417.935,495.379 417.264,489.267 416.058,483.674" fill="#263577"/>
        <path d="M487.551,427.079 C486.742,427.071 485.928,427.043 485.119,427.043 L382.357,426.215 L381.416,426.207 C380.35,426.425 379.53,427.322 379.53,428.451 C379.53,429.37 380.071,430.143 380.842,430.527 C381.187,430.612 381.532,430.698 381.871,430.789 C406.877,437.423 425.906,452.217 432.714,483.749 L450.018,483.749 C500.363,483.749 531.304,499.885 531.304,554.286 C531.304,575.035 522.531,595.317 513.291,613.297 C486.505,666.315 420.92,707.808 361.343,707.808 L407.81,577.006 L407.945,576.625 C408.042,576.327 408.133,576.018 408.133,575.687 C408.133,573.989 406.758,572.611 405.061,572.611 C404.29,572.611 403.609,572.92 403.067,573.387 C402.96,573.5 402.849,573.613 402.739,573.724 C379.431,597.78 345.975,619.037 311.373,633.436 C308.488,634.637 306.233,636.981 305.189,639.932 L280.457,707.402 C274.179,725.147 287.342,743.768 306.164,743.768 L341.947,743.768 C437.771,743.768 540.853,704.219 593.858,621.102 C594.244,620.494 594.658,619.906 595.042,619.291 C611.205,593.473 623.675,563.507 623.675,532.157 C623.675,456.565 552.934,427.772 487.551,427.079" fill="#263577"/>
      </g>
      <path d="M88.266,825.137 Q87.223,823.676 87.327,821.381 Q87.431,819.086 90.04,817.417 Q91.709,816.373 93.587,816.53 Q95.465,816.686 97.238,818.46 Q100.264,821.485 103.602,823.155 Q106.94,824.824 111.948,824.824 Q113.513,824.719 115.391,824.354 Q117.269,823.989 118.677,822.685 Q120.086,821.381 120.086,818.669 Q120.086,816.373 118.521,815.017 Q116.956,813.661 114.4,812.722 Q111.844,811.783 108.714,810.948 Q105.48,810.009 102.089,808.862 Q98.699,807.714 95.882,805.889 Q93.065,804.063 91.292,801.037 Q89.518,798.012 89.518,793.422 Q89.518,788.205 92.439,784.554 Q95.36,780.902 100.003,778.92 Q104.645,776.938 109.757,776.938 Q112.991,776.938 116.538,777.72 Q120.086,778.503 123.32,780.224 Q126.554,781.946 128.745,784.762 Q129.892,786.327 130.101,788.518 Q130.31,790.709 128.119,792.483 Q126.554,793.735 124.467,793.578 Q122.381,793.422 121.024,792.17 Q119.251,789.874 116.278,788.518 Q113.304,787.162 109.444,787.162 Q107.879,787.162 106.054,787.527 Q104.228,787.892 102.872,789.092 Q101.515,790.292 101.515,792.9 Q101.515,795.299 103.08,796.708 Q104.645,798.116 107.306,799.003 Q109.966,799.89 112.991,800.724 Q116.121,801.559 119.355,802.707 Q122.589,803.854 125.302,805.732 Q128.014,807.61 129.684,810.583 Q131.353,813.557 131.353,818.147 Q131.353,823.468 128.223,827.223 Q125.093,830.979 120.399,832.909 Q115.704,834.839 110.801,834.839 Q104.645,834.839 98.49,832.7 Q92.335,830.562 88.266,825.137 z" fill="#263579"/>
      <path d="M190.145,805.941 Q190.145,814.495 186.337,821.016 Q182.53,827.536 176.114,831.188 Q169.697,834.839 161.769,834.839 Q153.84,834.839 147.424,831.188 Q141.008,827.536 137.2,821.016 Q133.392,814.495 133.392,805.941 Q133.392,797.386 137.2,790.866 Q141.008,784.345 147.424,780.642 Q153.84,776.938 161.769,776.938 Q169.697,776.938 176.114,780.642 Q182.53,784.345 186.337,790.866 Q190.145,797.386 190.145,805.941 z M177.626,805.941 Q177.626,800.62 175.488,796.708 Q173.349,792.796 169.75,790.605 Q166.15,788.414 161.769,788.414 Q157.387,788.414 153.788,790.605 Q150.188,792.796 148.05,796.708 Q145.911,800.62 145.911,805.941 Q145.911,811.157 148.05,815.069 Q150.188,818.982 153.788,821.172 Q157.387,823.363 161.769,823.363 Q166.15,823.363 169.75,821.172 Q173.349,818.982 175.488,815.069 Q177.626,811.157 177.626,805.941 z" fill="#263579"/>
      <path d="M208.924,827.432 Q208.924,830.144 207.099,831.97 Q205.273,833.796 202.56,833.796 Q199.952,833.796 198.179,831.97 Q196.405,830.144 196.405,827.432 L196.405,762.958 Q196.405,760.246 198.231,758.42 Q200.057,756.594 202.769,756.594 Q205.482,756.594 207.203,758.42 Q208.924,760.246 208.924,762.958 z" fill="#263579"/>
      <path d="M259.209,777.981 Q261.922,777.981 263.695,779.807 Q265.469,781.633 265.469,784.345 L265.469,810.844 Q265.469,821.903 259.314,828.371 Q253.158,834.839 241.578,834.839 Q229.998,834.839 223.895,828.371 Q217.792,821.903 217.792,810.844 L217.792,784.345 Q217.792,781.633 219.565,779.807 Q221.339,777.981 224.051,777.981 Q226.764,777.981 228.537,779.807 Q230.311,781.633 230.311,784.345 L230.311,810.844 Q230.311,817.208 233.128,820.286 Q235.945,823.363 241.578,823.363 Q247.316,823.363 250.133,820.286 Q252.95,817.208 252.95,810.844 L252.95,784.345 Q252.95,781.633 254.723,779.807 Q256.497,777.981 259.209,777.981 z" fill="#263579"/>
      <path d="M298.123,776.938 Q304.07,776.938 308.504,778.19 Q312.937,779.442 315.389,781.685 Q317.841,783.928 317.841,787.058 Q317.841,789.144 316.589,790.97 Q315.337,792.796 312.937,792.796 Q311.268,792.796 310.173,792.326 Q309.077,791.857 308.243,791.126 Q307.408,790.396 306.261,789.77 Q305.217,789.144 303.079,788.779 Q300.94,788.414 299.897,788.414 Q294.576,788.414 290.872,790.709 Q287.169,793.004 285.187,796.917 Q283.204,800.829 283.204,805.941 Q283.204,810.948 285.239,814.861 Q287.273,818.773 290.872,821.068 Q294.472,823.363 299.166,823.363 Q301.775,823.363 303.652,823.05 Q305.53,822.737 306.782,822.111 Q308.243,821.277 309.39,820.338 Q310.538,819.399 312.833,819.399 Q315.546,819.399 317.006,821.12 Q318.467,822.842 318.467,825.345 Q318.467,827.954 315.546,830.092 Q312.624,832.231 307.878,833.535 Q303.131,834.839 297.602,834.839 Q289.36,834.839 283.309,831.031 Q277.258,827.223 273.972,820.651 Q270.685,814.078 270.685,805.941 Q270.685,797.386 274.18,790.866 Q277.675,784.345 283.883,780.642 Q290.09,776.938 298.123,776.938 z M292.281,849.549 Q291.238,849.549 289.621,848.975 Q288.003,848.402 286.752,847.306 Q285.5,846.211 285.5,844.75 Q285.5,843.185 286.752,841.62 L294.889,830.666 L302.296,830.666 L296.558,846.211 Q295.306,849.549 292.281,849.549 z" fill="#263579"/>
      <path d="M375.95,805.941 Q375.95,814.496 372.143,821.016 Q368.335,827.536 361.919,831.188 Q355.503,834.839 347.574,834.839 Q339.645,834.839 333.229,831.188 Q326.813,827.536 323.005,821.016 Q319.197,814.496 319.197,805.941 Q319.197,797.386 323.005,790.866 Q326.813,784.345 333.229,780.642 Q339.645,776.938 347.574,776.938 Q355.503,776.938 361.919,780.642 Q368.335,784.345 372.143,790.866 Q375.95,797.386 375.95,805.941 z M363.431,805.941 Q363.431,800.62 361.293,796.708 Q359.154,792.796 355.555,790.605 Q351.955,788.414 347.574,788.414 Q343.192,788.414 339.593,790.605 Q335.993,792.796 333.855,796.708 Q331.716,800.62 331.716,805.941 Q331.716,811.157 333.855,815.069 Q335.993,818.982 339.593,821.172 Q343.192,823.363 347.574,823.363 Q351.955,823.363 355.555,821.172 Q359.154,818.982 361.293,815.069 Q363.431,811.157 363.431,805.941 z M333.594,772.243 Q331.299,772.243 329.577,770.366 Q327.856,768.488 327.856,765.149 Q327.856,761.811 330.986,758.89 Q334.116,755.969 340.688,755.969 Q343.401,755.969 345.592,757.012 Q347.782,758.055 349.608,759.359 Q351.434,760.663 353.051,761.706 Q354.668,762.75 356.024,762.75 Q357.172,762.75 357.798,762.176 Q358.424,761.602 358.111,760.559 Q357.38,758.159 358.632,756.803 Q359.884,755.447 361.762,755.447 Q364.162,755.447 365.831,757.273 Q367.5,759.098 367.5,762.332 Q367.5,764.106 366.352,766.297 Q365.205,768.488 362.597,770.105 Q359.989,771.722 355.607,771.722 Q353.416,771.722 351.173,770.679 Q348.93,769.635 346.739,768.331 Q344.548,767.027 342.67,765.984 Q340.793,764.941 339.332,764.941 Q338.289,764.941 337.611,765.514 Q336.932,766.088 337.245,767.131 Q337.976,769.427 336.724,770.835 Q335.472,772.243 333.594,772.243 z" fill="#263579"/>
      <path d="M406.935,834.839 Q398.068,834.839 391.547,831.135 Q385.027,827.432 381.532,821.068 Q378.037,814.704 378.037,806.671 Q378.037,797.282 381.845,790.657 Q385.653,784.032 391.808,780.485 Q397.963,776.938 404.849,776.938 Q410.17,776.938 414.916,779.129 Q419.663,781.32 423.315,785.128 Q426.966,788.936 429.105,793.943 Q431.243,798.951 431.243,804.584 Q431.139,807.088 429.261,808.653 Q427.383,810.218 424.88,810.218 L385.027,810.218 L381.897,799.785 L420.185,799.785 L417.89,801.872 L417.89,799.055 Q417.681,796.03 415.751,793.63 Q413.821,791.231 410.952,789.822 Q408.083,788.414 404.849,788.414 Q401.719,788.414 399.007,789.248 Q396.294,790.083 394.312,792.065 Q392.33,794.047 391.182,797.386 Q390.035,800.724 390.035,805.836 Q390.035,811.47 392.382,815.382 Q394.729,819.294 398.433,821.329 Q402.136,823.363 406.309,823.363 Q410.17,823.363 412.465,822.737 Q414.76,822.111 416.168,821.224 Q417.577,820.338 418.724,819.712 Q420.602,818.773 422.271,818.773 Q424.567,818.773 426.079,820.338 Q427.592,821.903 427.592,823.989 Q427.592,826.806 424.671,829.101 Q421.958,831.396 417.055,833.118 Q412.152,834.839 406.935,834.839 z" fill="#263579"/>
      <path d="M433.273,825.137 Q432.23,823.676 432.334,821.381 Q432.438,819.086 435.047,817.417 Q436.716,816.373 438.594,816.53 Q440.472,816.686 442.245,818.46 Q445.271,821.485 448.609,823.155 Q451.947,824.824 456.955,824.824 Q458.52,824.719 460.398,824.354 Q462.276,823.989 463.684,822.685 Q465.093,821.381 465.093,818.669 Q465.093,816.373 463.528,815.017 Q461.963,813.661 459.407,812.722 Q456.851,811.783 453.721,810.948 Q450.487,810.009 447.096,808.862 Q443.706,807.714 440.889,805.889 Q438.072,804.063 436.299,801.037 Q434.525,798.012 434.525,793.422 Q434.525,788.205 437.446,784.554 Q440.367,780.902 445.01,778.92 Q449.652,776.938 454.764,776.938 Q457.998,776.938 461.546,777.72 Q465.093,778.503 468.327,780.224 Q471.561,781.946 473.752,784.762 Q474.899,786.327 475.108,788.518 Q475.317,790.709 473.126,792.483 Q471.561,793.735 469.474,793.578 Q467.388,793.422 466.032,792.17 Q464.258,789.874 461.285,788.518 Q458.311,787.162 454.451,787.162 Q452.886,787.162 451.061,787.527 Q449.235,787.892 447.879,789.092 Q446.523,790.292 446.523,792.9 Q446.523,795.299 448.087,796.708 Q449.652,798.116 452.313,799.003 Q454.973,799.89 457.998,800.724 Q461.128,801.559 464.362,802.707 Q467.596,803.854 470.309,805.732 Q473.021,807.61 474.691,810.583 Q476.36,813.557 476.36,818.147 Q476.36,823.468 473.23,827.223 Q470.1,830.979 465.406,832.909 Q460.711,834.839 455.808,834.839 Q449.652,834.839 443.497,832.7 Q437.342,830.562 433.273,825.137 z" fill="#263579"/>
    </g>
  </g>
</svg>
